<?xml version="1.0" encoding="UTF-8" standalone="no"?>
<!-- Generator: Adobe Illustrator 18.1.1, SVG Export Plug-In . SVG Version: 6.00 Build 0)  -->

<svg
   xmlns:dc="http://purl.org/dc/elements/1.1/"
   xmlns:cc="http://creativecommons.org/ns#"
   xmlns:rdf="http://www.w3.org/1999/02/22-rdf-syntax-ns#"
   xmlns:svg="http://www.w3.org/2000/svg"
   xmlns="http://www.w3.org/2000/svg"
   xmlns:sodipodi="http://sodipodi.sourceforge.net/DTD/sodipodi-0.dtd"
   xmlns:inkscape="http://www.inkscape.org/namespaces/inkscape"
   version="1.1"
   id="Layer_1"
   x="0px"
   y="0px"
   width="32"
   height="32"
   viewBox="0 0 32 32"
   enable-background="new 0 0 32 32"
   xml:space="preserve"
   sodipodi:docname="icons-linkedin.svg"
   inkscape:version="0.92.3 (3ce5693, 2018-03-11)"><metadata
   id="metadata9"><rdf:RDF><cc:Work
       rdf:about=""><dc:format>image/svg+xml</dc:format><dc:type
         rdf:resource="http://purl.org/dc/dcmitype/StillImage" /><dc:title>LinkedIn icon</dc:title></cc:Work></rdf:RDF></metadata><defs
   id="defs7" /><sodipodi:namedview
   pagecolor="#ffffff"
   bordercolor="#666666"
   borderopacity="1"
   objecttolerance="10"
   gridtolerance="10"
   guidetolerance="10"
   inkscape:pageopacity="0"
   inkscape:pageshadow="2"
   inkscape:window-width="1920"
   inkscape:window-height="1131"
   id="namedview5"
   showgrid="false"
   inkscape:zoom="7.375"
   inkscape:cx="-38.644068"
   inkscape:cy="8.0000004"
   inkscape:window-x="1920"
   inkscape:window-y="33"
   inkscape:window-maximized="1"
   inkscape:current-layer="Layer_1" />
  <title
   id="simpleicons-linkedin-icon">LinkedIn icon</title>
  <path
   d="M 27.262667,27.269334 H 22.524 v -7.425335 c 0,-1.770665 -0.036,-4.049333 -2.469334,-4.049333 -2.470666,0 -2.848,1.926668 -2.848,3.918666 v 7.556002 H 12.467999 V 12 H 17.02 v 2.081334 h 0.06133 c 0.636,-1.200002 2.182667,-2.466668 4.493334,-2.466668 4.801333,0 5.689333,3.16 5.689333,7.273334 v 8.381334 z M 7.116,9.9106666 C 5.5906666,9.9106666 4.3653333,8.676 4.3653333,7.1573333 4.3653333,5.64 5.592,4.4066667 7.116,4.4066667 8.636,4.4066667 9.8679999,5.64 9.8679999,7.1573333 9.8679999,8.676 8.6346666,9.9106666 7.116,9.9106666 Z M 9.492,27.269334 H 4.74 V 12 H 9.492 Z M 29.633333,0 H 2.3613333 C 1.056,0 0,1.032 0,2.3053333 V 29.694666 C 0,30.969334 1.056,32 2.3613333,32 H 29.629333 C 30.933333,32 32,30.969334 32,29.694666 V 2.3053333 C 32,1.032 30.933333,0 29.629333,0 Z"
   id="path3"
   style="fill:#f44000;fill-opacity:0.9372549;stroke-width:1.33333325"
   inkscape:connector-curvature="0" />
</svg>