<?xml version="1.0" encoding="UTF-8" standalone="no"?>
<svg
   xmlns:dc="http://purl.org/dc/elements/1.1/"
   xmlns:cc="http://creativecommons.org/ns#"
   xmlns:rdf="http://www.w3.org/1999/02/22-rdf-syntax-ns#"
   xmlns:svg="http://www.w3.org/2000/svg"
   xmlns="http://www.w3.org/2000/svg"
   xmlns:sodipodi="http://sodipodi.sourceforge.net/DTD/sodipodi-0.dtd"
   xmlns:inkscape="http://www.inkscape.org/namespaces/inkscape"
   aria-labelledby="simpleicons-github-icon"
   role="img"
   viewBox="0 0 32 32"
   version="1.1"
   id="svg5"
   sodipodi:docname="icons-github.svg"
   inkscape:version="0.92.3 (3ce5693, 2018-03-11)"
   width="32"
   height="32">
  <metadata
     id="metadata11">
    <rdf:RDF>
      <cc:Work
         rdf:about="">
        <dc:format>image/svg+xml</dc:format>
        <dc:type
           rdf:resource="http://purl.org/dc/dcmitype/StillImage" />
      </cc:Work>
    </rdf:RDF>
  </metadata>
  <defs
     id="defs9" />
  <sodipodi:namedview
     pagecolor="#ffffff"
     bordercolor="#666666"
     borderopacity="1"
     objecttolerance="10"
     gridtolerance="10"
     guidetolerance="10"
     inkscape:pageopacity="0"
     inkscape:pageshadow="2"
     inkscape:window-width="1920"
     inkscape:window-height="1131"
     id="namedview7"
     showgrid="false"
     inkscape:zoom="3.4766083"
     inkscape:cx="-61.697762"
     inkscape:cy="-41.230345"
     inkscape:window-x="1920"
     inkscape:window-y="33"
     inkscape:window-maximized="1"
     inkscape:current-layer="svg5" />
  <title
     id="simpleicons-github-icon">GitHub icon</title>
  <path
     d="M 16.000002,0 C 7.1600007,0 0,7.3458924 0,16.406235 c 0,7.250189 4.5840005,13.398426 10.940001,15.565416 0.8,0.154493 1.093334,-0.352734 1.093334,-0.788866 0,-0.389648 -0.01334,-1.421873 -0.02,-2.78906 -4.4506676,0.989843 -5.3893343,-2.20117 -5.3893343,-2.20117 -0.7280001,-1.893553 -1.7800002,-2.399412 -1.7800002,-2.399412 -1.4493335,-1.017186 0.112,-0.996678 0.112,-0.996678 1.6066668,0.114843 2.4506669,1.689841 2.4506669,1.689841 1.426667,2.508787 3.7453336,1.784178 4.6600006,1.364452 0.144,-1.060936 0.556,-1.784178 1.013333,-2.194334 -3.5533335,-0.410155 -7.2880004,-1.821092 -7.2880004,-8.107414 0,-1.791014 0.62,-3.253903 1.6466668,-4.40234 -0.18,-0.414257 -0.72,-2.0822246 0.14,-4.3421836 0,0 1.3400006,-0.440234 4.4000006,1.681639 1.28,-0.365039 2.64,-0.545507 4,-0.55371 1.36,0.0082 2.72,0.188671 4.000001,0.55371 3.04,-2.121873 4.38,-1.681639 4.38,-1.681639 0.86,2.259959 0.32,3.9279266 0.16,4.3421836 1.020001,1.148437 1.64,2.611326 1.64,4.40234 0,6.302729 -3.74,7.690423 -7.3,8.093742 0.559999,0.492188 1.08,1.498437 1.08,3.035154 0,2.195701 -0.02,3.959371 -0.02,4.492575 0,0.430663 0.28,0.943358 1.100001,0.779296 C 27.419999,29.797825 32,23.645487 32,16.406235 32,7.3458924 24.835999,0 15.999998,0"
     id="path3"
     style="fill:#f44000;fill-opacity:0.98039216;stroke-width:1.3501538"
     inkscape:connector-curvature="0" />
</svg>
